<?xml version="1.0" encoding="utf-8" ?>
<svg baseProfile="tiny" height="661px" version="1.2" width="657px" xmlns="http://www.w3.org/2000/svg" xmlns:ev="http://www.w3.org/2001/xml-events" xmlns:xlink="http://www.w3.org/1999/xlink"><defs /><polygon fill="black" points="390,458 390,459 389,460 389,461 387,463 387,464 386,465 386,466 385,467 385,468 383,470 383,471 382,472 382,473 380,475 380,476 379,477 379,478 378,479 378,480 376,482 376,483 375,484 375,485 374,486 374,487 372,489 372,490 371,491 371,492 370,493 370,494 369,495 369,496 368,497 368,498 367,499 367,500 366,501 366,502 365,503 365,504 364,505 364,506 363,507 363,508 362,509 362,510 361,511 361,512 360,513 360,515 359,516 359,517 358,518 358,519 357,520 357,521 356,522 356,524 355,525 355,526 354,527 354,529 353,530 353,531 352,532 352,534 351,535 351,537 350,538 350,540 349,541 349,542 348,543 348,545 347,546 347,549 346,550 346,552 345,553 345,556 344,557 344,560 343,561 343,564 342,565 342,568 341,569 341,572 340,573 340,577 339,578 339,602 340,603 340,613 341,614 341,621 430,621 430,619 429,618 429,601 428,600 428,589 427,588 427,579 426,578 426,571 425,570 425,564 424,563 424,557 423,556 423,551 422,550 422,546 421,545 421,541 420,540 420,537 419,536 419,532 418,531 418,528 417,527 417,524 416,523 416,520 415,519 415,517 414,516 414,513 413,512 413,510 412,509 412,507 411,506 411,503 410,502 410,500 409,499 409,497 408,496 408,494 407,493 407,491 406,490 406,488 405,487 405,486 404,485 404,483 403,482 403,481 402,480 402,479 401,478 401,476 400,475 400,474 399,473 399,472 398,471 398,470 397,469 397,468 396,467 396,466 395,465 395,464 393,462 393,461 392,460 392,459 391,458" /><polygon fill="black" points="631,193 630,194 610,194 609,195 600,195 599,196 591,196 590,197 584,197 583,198 577,198 576,199 571,199 570,200 566,200 565,201 561,201 560,202 556,202 555,203 552,203 551,204 547,204 546,205 543,205 542,206 539,206 538,207 536,207 535,208 532,208 531,209 528,209 527,210 525,210 524,211 522,211 521,212 519,212 518,213 515,213 514,214 513,214 512,215 510,215 509,216 507,216 506,217 504,217 503,218 501,218 500,219 499,219 498,220 496,220 495,221 494,221 493,222 491,222 490,223 489,223 488,224 486,224 485,225 484,225 483,226 481,226 480,227 479,227 478,228 477,228 476,229 474,229 473,230 472,230 471,231 470,231 469,232 468,232 467,233 466,233 465,234 464,234 463,235 462,235 461,236 460,236 459,237 458,237 457,238 456,238 455,239 454,239 453,240 452,240 450,242 449,242 448,243 447,243 446,244 445,244 444,245 443,245 441,247 440,247 439,248 438,248 437,249 436,249 434,251 433,251 431,253 430,253 429,254 428,254 426,256 425,256 423,258 422,258 420,260 419,260 417,262 416,262 414,264 413,264 410,267 409,267 407,269 406,269 403,272 402,272 399,275 398,275 394,279 393,279 389,283 388,283 384,287 383,287 377,293 376,293 368,301 367,301 339,329 339,330 330,339 330,340 323,347 323,348 318,353 318,354 314,358 314,359 310,363 310,364 307,367 307,368 303,372 303,373 300,376 300,377 297,380 297,381 295,383 295,384 292,387 292,388 290,390 290,391 287,394 287,395 285,397 285,398 283,400 283,401 281,403 281,404 280,405 280,406 278,408 278,409 276,411 276,412 275,413 275,414 273,416 273,417 272,418 272,419 271,420 271,421 269,423 269,424 268,425 268,426 267,427 267,428 265,430 265,431 264,432 264,433 263,434 263,435 262,436 262,437 261,438 261,439 260,440 260,441 259,442 259,443 258,444 258,445 257,446 257,447 256,448 256,449 255,450 255,452 254,453 254,454 253,455 253,456 252,457 252,458 251,459 251,461 250,462 250,463 249,464 249,465 248,466 248,468 247,469 247,470 246,471 246,473 245,474 245,475 244,476 244,478 243,479 243,481 242,482 242,484 241,485 241,487 240,488 240,490 239,491 239,493 238,494 238,496 237,497 237,499 236,500 236,503 235,504 235,506 234,507 234,509 233,510 233,513 232,514 232,517 231,518 231,521 230,522 230,525 229,526 229,530 228,531 228,534 227,535 227,539 226,540 226,545 225,546 225,550 224,551 224,557 223,558 223,564 222,565 222,572 221,573 221,582 220,583 220,593 219,594 219,610 218,611 218,621 306,621 306,611 307,610 307,599 308,598 308,591 309,590 309,584 310,583 310,578 311,577 311,573 312,572 312,568 313,567 313,564 314,563 314,560 315,559 315,555 316,554 316,551 317,550 317,548 318,547 318,544 319,543 319,541 320,540 320,538 321,537 321,535 322,534 322,532 323,531 323,529 324,528 324,527 325,526 325,524 326,523 326,521 327,520 327,519 328,518 328,516 329,515 329,514 330,513 330,512 331,511 331,509 332,508 332,507 333,506 333,505 334,504 334,503 335,502 335,500 336,499 336,498 337,497 337,496 338,495 338,494 339,493 339,492 340,491 340,490 341,489 341,488 342,487 342,486 343,485 343,484 344,483 344,482 345,481 345,480 346,479 346,478 348,476 348,475 349,474 349,473 350,472 350,471 352,469 352,468 353,467 353,466 354,465 354,464 356,462 356,461 357,460 357,459 359,457 359,456 361,454 361,453 362,452 362,451 364,449 364,448 366,446 366,445 368,443 368,442 370,440 370,439 372,437 372,436 375,433 375,432 377,430 377,429 380,426 380,425 383,422 383,421 386,418 386,417 389,414 389,413 392,410 392,409 397,404 397,403 403,397 403,396 410,389 410,388 431,367 432,367 440,359 441,359 447,353 448,353 452,349 453,349 456,346 457,346 460,343 461,343 464,340 465,340 467,338 468,338 471,335 472,335 474,333 475,333 477,331 478,331 480,329 481,329 482,328 483,328 485,326 486,326 487,325 488,325 490,323 491,323 492,322 493,322 494,321 495,321 497,319 498,319 499,318 500,318 501,317 502,317 503,316 504,316 505,315 506,315 507,314 508,314 509,313 510,313 511,312 512,312 513,311 514,311 515,310 516,310 517,309 518,309 519,308 520,308 521,307 522,307 523,306 525,306 526,305 527,305 528,304 530,304 531,303 532,303 533,302 535,302 536,301 537,301 538,300 540,300 541,299 543,299 544,298 546,298 547,297 549,297 550,296 552,296 553,295 555,295 556,294 558,294 559,293 562,293 563,292 566,292 567,291 570,291 571,290 574,290 575,289 578,289 579,288 583,288 584,287 588,287 589,286 594,286 595,285 600,285 601,284 609,284 610,283 621,283 622,282 632,282 632,193" /><polygon fill="black" points="17,193 17,282 28,282 29,283 39,283 40,284 47,284 48,285 54,285 55,286 60,286 61,287 65,287 66,288 70,288 71,289 74,289 75,290 78,290 79,291 82,291 83,292 86,292 87,293 90,293 91,294 93,294 94,295 96,295 97,296 99,296 100,297 102,297 103,298 105,298 106,299 108,299 109,300 110,300 111,301 113,301 114,302 116,302 117,303 118,303 119,304 121,304 122,305 123,305 124,306 125,306 126,307 128,307 129,308 130,308 131,309 132,309 133,310 134,310 135,311 136,311 137,312 138,312 139,313 140,313 141,314 142,314 143,315 144,315 145,316 146,316 147,317 148,317 149,318 150,318 151,319 152,319 154,321 155,321 156,322 157,322 158,323 159,323 161,325 162,325 163,326 164,326 166,328 167,328 168,329 169,329 171,331 172,331 174,333 175,333 177,335 178,335 180,337 181,337 184,340 185,340 187,342 188,342 191,345 192,345 195,348 196,348 200,352 201,352 206,357 207,357 213,363 214,363 224,373 225,373 238,386 238,387 246,395 246,394 247,393 247,392 248,391 248,390 250,388 250,387 251,386 251,385 252,384 252,383 254,381 254,380 255,379 255,378 257,376 257,375 259,373 259,372 261,370 261,369 262,368 262,367 264,365 264,364 267,361 267,360 269,358 269,357 272,354 272,353 276,349 276,348 279,345 279,344 284,339 284,338 289,333 289,332 298,323 298,322 301,319 294,312 293,312 281,300 280,300 273,293 272,293 266,287 265,287 261,283 260,283 256,279 255,279 251,275 250,275 247,272 246,272 243,269 242,269 240,267 239,267 236,264 235,264 233,262 232,262 230,260 229,260 227,258 226,258 224,256 223,256 221,254 220,254 219,253 218,253 216,251 215,251 213,249 212,249 211,248 210,248 209,247 208,247 206,245 205,245 204,244 203,244 202,243 201,243 200,242 199,242 197,240 196,240 195,239 194,239 193,238 192,238 191,237 190,237 189,236 188,236 187,235 186,235 185,234 184,234 183,233 182,233 181,232 180,232 179,231 178,231 177,230 176,230 175,229 174,229 173,228 171,228 170,227 169,227 168,226 167,226 166,225 165,225 164,224 162,224 161,223 160,223 159,222 157,222 156,221 155,221 154,220 152,220 151,219 150,219 149,218 147,218 146,217 144,217 143,216 141,216 140,215 138,215 137,214 135,214 134,213 132,213 131,212 129,212 128,211 126,211 125,210 122,210 121,209 119,209 118,208 115,208 114,207 112,207 111,206 108,206 107,205 103,205 102,204 99,204 98,203 95,203 94,202 90,202 89,201 85,201 84,200 79,200 78,199 73,199 72,198 67,198 66,197 60,197 59,196 51,196 50,195 40,195 39,194 19,194 18,193" /><polygon fill="black" points="311,31 310,32 305,32 304,33 301,33 300,34 298,34 297,35 295,35 294,36 292,36 291,37 289,37 288,38 287,38 286,39 285,39 284,40 282,40 280,42 279,42 278,43 277,43 276,44 275,44 273,46 272,46 270,48 269,48 266,51 265,51 251,65 251,66 248,69 248,70 246,72 246,73 244,75 244,76 243,77 243,78 242,79 242,80 241,81 241,82 240,83 240,84 239,85 239,86 238,87 238,89 237,90 237,91 236,92 236,94 235,95 235,97 234,98 234,101 233,102 233,106 232,107 232,112 231,113 231,132 232,133 232,139 233,140 233,144 234,145 234,148 235,149 235,151 236,152 236,154 237,155 237,156 238,157 238,159 239,160 239,161 240,162 240,163 241,164 241,165 242,166 242,167 243,168 243,169 244,170 244,171 246,173 246,174 248,176 248,177 251,180 251,181 266,196 267,196 270,199 271,199 273,201 274,201 276,203 277,203 278,204 279,204 280,205 281,205 282,206 283,206 284,207 285,207 286,208 287,208 288,209 289,209 290,210 292,210 293,211 295,211 296,212 298,212 299,213 303,213 304,214 307,214 308,215 316,215 317,216 329,216 330,215 338,215 339,214 343,214 344,213 347,213 348,212 351,212 352,211 354,211 355,210 356,210 357,209 359,209 360,208 361,208 362,207 363,207 364,206 365,206 366,205 367,205 368,204 369,204 371,202 372,202 373,201 374,201 376,199 377,199 380,196 381,196 395,182 395,181 399,177 399,176 401,174 401,173 403,171 403,170 404,169 404,168 405,167 405,166 406,165 406,164 407,163 407,162 408,161 408,160 409,159 409,157 410,156 410,154 411,153 411,151 412,150 412,148 413,147 413,144 414,143 414,139 415,138 415,129 416,128 416,120 415,119 415,110 414,109 414,105 413,104 413,100 412,99 412,97 411,96 411,94 410,93 410,91 409,90 409,89 408,88 408,86 407,85 407,84 406,83 406,82 405,81 405,80 404,79 404,78 402,76 402,75 400,73 400,72 399,71 399,70 395,66 395,65 381,51 380,51 377,48 376,48 374,46 373,46 371,44 370,44 369,43 368,43 366,41 365,41 364,40 363,40 362,39 360,39 359,38 358,38 357,37 355,37 354,36 353,36 352,35 349,35 348,34 346,34 345,33 342,33 341,32 336,32 335,31" /></svg>